<svg height="682pt" viewBox="-21 -76 682.66655 682" width="682pt" xmlns="http://www.w3.org/2000/svg"><path d="m231.707031 360.691406h-33.097656c-3.691406 0-7.136719 1.839844-9.1875 4.90625l-7.289063 10.945313-16.847656-84.261719c-1.039062-5.097656-5.492187-8.773438-10.691406-8.824219h-.125c-5.175781-.007812-9.65625 3.585938-10.777344 8.636719l-16.449218 74.113281-7.726563-11.59375c-2.335937-3.507812-6.46875-5.367187-10.640625-4.8125-4.175781.5625-7.667969 3.453125-9 7.449219l-10.082031 30.25-23.925781-95.695312c-1.210938-4.839844-5.519532-8.265626-10.511719-8.347657-5.019531-.164062-9.488281 3.148438-10.804688 7.996094l-19.765625 69.238281h-13.75c-6.09375 0-11.035156 4.941406-11.035156 11.03125 0 6.09375 4.941406 11.035156 11.035156 11.035156h22.066406c4.925782 0 9.257813-3.265624 10.617188-8l10.746094-37.625 23.101562 92.4375c1.1875 4.761719 5.382813 8.164063 10.28125 8.355469h.421875c4.746094-.003906 8.960938-3.042969 10.457031-7.546875l14.941407-44.796875 9.554687 14.34375c2.449219 3.679688 6.863282 5.546875 11.214844 4.734375 4.34375-.8125 7.792969-4.144531 8.746094-8.464844l10.714844-48.28125 11.824218 59.117188c.878906 4.371094 4.304688 7.785156 8.675782 8.65625 4.375.863281 8.84375-.988281 11.320312-4.695312l18.792969-28.234376h27.195312c6.089844 0 11.03125-4.941406 11.03125-11.035156 0-6.089844-4.941406-11.03125-11.03125-11.03125zm0 0"/><path d="m562.714844 195.1875c-31.238282 0-59.398438 18.816406-71.355469 47.675781-11.953125 28.859375-5.347656 62.078125 16.742187 84.171875 22.085938 22.089844 55.304688 28.695313 84.171876 16.742188 28.859374-11.957032 47.675781-40.117188 47.675781-71.355469-.046875-42.640625-34.601563-77.1875-77.234375-77.234375zm41.71875 62.0625-44.136719 55.167969c-1.957031 2.449219-4.867187 3.949219-7.996094 4.125h-.621093c-2.925782 0-5.730469-1.160157-7.800782-3.230469l-22.066406-22.070312c-4.183594-4.332032-4.125-11.210938.132812-15.46875 4.257813-4.25 11.136719-4.316407 15.46875-.128907l13.351563 13.347657 36.410156-45.546876c2.464844-3.078124 6.382813-4.609374 10.28125-4.015624 3.898438.597656 7.183594 3.222656 8.617188 6.898437 1.433593 3.671875.800781 7.832031-1.664063 10.910156zm0 0"/><path d="m583.757812 444.425781c-4.949218-18.027343-8.347656-36.445312-10.164062-55.050781-.644531-6.027344-.972656-12.085938-.984375-18.148438-3.308594.316407-6.550781.496094-9.929687.496094-45.65625.105469-85.5-30.941406-96.5625-75.242187-11.066407-44.296875 9.503906-90.429688 49.847656-111.808594 40.347656-21.375 90.070312-12.488281 120.507812 21.546875 2.1875-9.113281 3.351563-18.445312 3.476563-27.8125.453125-23.222656-2.171875-46.398438-7.8125-68.929688-6.664063-25.566406-21.273438-48.363281-41.71875-65.097656-41.382813-35.304687-79.769531-49.9375-124.292969-47.445312-25.257812 1.890625-50.316406 5.800781-74.949219 11.683594-26.71875 4.214843-51.359375 16.941406-70.261719 36.292968-12.726562 14.804688-22.394531 31.988282-28.4375 50.550782-2.9375 9.25-5.328124 18.660156-7.148437 28.191406l-.226563 1.105468c-1.921874 8.050782-4.589843 15.902344-7.996093 23.445313-1.496094 3.652344-3.011719 7.292969-4.300781 11.035156-.671876 1.761719-1.046876 3.625-1.101563 5.515625.261719 1.996094 3.1875 4.929688 6.015625 7.722656 7.160156 5.734376 11.644531 14.160157 12.390625 23.304688-.035156 4.257812-1.105469 8.441406-3.117187 12.191406-6.527344 13.808594-15.019532 26.597656-25.222657 37.964844-3.683593 4.414062-7.652343 9.214844-11.980469 14.976562-2.800781 3.304688-5.117187 7-6.875 10.964844 1.148438 1.179688 2.375 2.285156 3.664063 3.308594 1.992187 1.503906 4.109375 2.839844 6.320313 3.984375 9.476562 3.660156 16.683593 11.554687 19.46875 21.316406 1.199218 6.941407.386718 14.078125-2.355469 20.566407-1.101563 2.574218-2.304688 4.902343-3.371094 6.988281 5.753906 1.53125 15.964844 4.035156 33.839844 7.941406 9.050781 1.96875 15.734375 9.648437 16.441406 18.886719.710937 9.238281-4.730469 17.839844-13.375 21.164062-5.960937 2.25-11.734375 4.980469-17.257813 8.167969 1.167969 2.71875 2 5.570313 2.472657 8.496094.242187 1.210937.527343 2.613281.914062 4.277343 1.179688 6.335938.941407 12.851563-.703125 19.082032-.367187 1.828125-.742187 3.660156-.953125 5.515625-.5 5.019531.136719 10.085937 1.855469 14.828125 1.433594 4.535156 4.976562 11.816406 12.910156 10.050781 12.570313-4.011719 24.695313-9.308594 36.175782-15.8125 10.523437-5.601563 21.316406-10.664063 32.351562-15.167969h.070312c7.976563-2.945312 15.222657-5.703125 21.039063-7.933594 6.078125-2.316406 10.65625-4.050781 12.996094-4.855468 31.886719-10.964844 38.375-23.171875 38.199219-31.46875-.125-6.089844 4.703124-11.128906 10.789062-11.265625h.246094c6.003906 0 10.90625 4.796875 11.035156 10.804687.472656 22.75-17.394531 40.523438-53.117188 52.816406-2.207031.761719-6.558593 2.402344-12.28125 4.589844l-4.523437 1.71875c20.054687 25.546875 36.222656 74.546875 42.773437 96.4375l175.613282-.476562c-1.867188-3.042969-3.542969-6.203125-5.011719-9.453125-4.089844-9.152344-22.902344-63.117188-25.382813-71.960938zm0 0"/></svg>